<?xml version="1.0" encoding="UTF-8" standalone="no"?>
<!-- Created with Inkscape (http://www.inkscape.org/) -->

<svg
   xmlns:dc="http://purl.org/dc/elements/1.1/"
   xmlns:cc="http://creativecommons.org/ns#"
   xmlns:rdf="http://www.w3.org/1999/02/22-rdf-syntax-ns#"
   xmlns:svg="http://www.w3.org/2000/svg"
   xmlns="http://www.w3.org/2000/svg"
   version="1.1"
   width="538.58264"
   height="288.07086"
   id="svg44322"
   xml:space="preserve"><metadata
     id="metadata44328"><rdf:RDF><cc:Work
         rdf:about=""><dc:format>image/svg+xml</dc:format><dc:type
           rdf:resource="http://purl.org/dc/dcmitype/StillImage" /><dc:title></dc:title></cc:Work></rdf:RDF></metadata><defs
     id="defs44326"><clipPath
       id="clipPath44350"><path
         d="m 0,841.89 595.28,0 L 595.28,0 0,0 0,841.89 z"
         id="path44352" /></clipPath></defs><g
     transform="matrix(1.25,0,0,-1.25,-96.271485,466.82248)"
     id="g44330"><g
       transform="matrix(3.8461532,0,0,3.8461532,-1456.1868,-92.003333)"
       id="g44702"><g
         transform="translate(483.2949,73.073086)"
         id="g44334"><path
           d="m 0,0 3.445,0 0,8.953 L 8.61,0 l 3.503,0 0,14.289 -3.441,0 0,-8.848 L 3.665,14.289 0,14.289 0,0 z"
           id="path44336"
           style="fill:#135091;fill-opacity:1;fill-rule:nonzero;stroke:none" /></g><g
         transform="translate(501.3174,78.974486)"
         id="g44338"><path
           d="M 0,0 1.297,4.717 2.622,0 0,0 m 3.947,8.378 -5.319,0.01 -4.303,-14.287 4.037,-0.002 0.765,2.787 4.399,0 0.782,-2.787 4.12,0 -4.481,14.279 z"
           id="path44340"
           style="fill:#135091;fill-opacity:1;fill-rule:evenodd;stroke:none" /></g><g
         transform="translate(474.3438,73.073086)"
         id="g44342"><path
           d="m 0,0 8.301,0 0,2.934 -4.53,0 0,11.355 L 0,14.289 0,0 z"
           id="path44344"
           style="fill:#135091;fill-opacity:1;fill-rule:nonzero;stroke:none" /></g><g
         transform="translate(-40,16.470588)"
         id="g44346"><g
           clip-path="url(#clipPath44350)"
           id="g44348"><g
             transform="translate(513.3438,67.7686)"
             id="g44354"><path
               d="m 0,0 0,3.144 -7.562,0 c -0.983,0 -1.783,-0.798 -1.783,-1.788 l 0,-10.735 c 0,-0.988 0.8,-1.791 1.783,-1.791 0.004,0 0.009,0.004 0.012,0.004 l 7.55,0 0,3.151 -5.774,0 0,2.397 5.327,0 0,3.157 -5.327,0 0,2.461 L 0,0"
               id="path44356"
               style="fill:#135091;fill-opacity:1;fill-rule:nonzero;stroke:none" /></g><path
             d="m 488.622,56.599 3.772,0 0,14.289 -3.772,0 0,-14.289 z"
             id="path44358"
             style="fill:#135091;fill-opacity:1;fill-rule:nonzero;stroke:none" /><g
             transform="translate(493.835,70.8877)"
             id="g44360"><path
               d="m 0,0 0,-3.207 2.704,0 0,-11.078 4.042,0 0,11.078 2.729,0 L 9.475,0 0,0 z"
               id="path44362"
               style="fill:#135091;fill-opacity:1;fill-rule:nonzero;stroke:none" /></g><g
             transform="translate(468.4375,68.2744)"
             id="g44364"><path
               d="m 0,0 c 1.879,0 3.015,-1.67 3.015,-4.482 0,-2.789 -1.136,-4.461 -3.015,-4.461 -1.898,0 -3.016,1.672 -3.016,4.461 C -3.016,-1.67 -1.898,0 0,0 m 0,-11.837 c 3.975,0 6.598,2.937 6.598,7.355 0,4.439 -2.623,7.375 -6.598,7.375 -3.973,0 -6.616,-2.936 -6.616,-7.375 0,-4.418 2.643,-7.355 6.616,-7.355"
               id="path44366"
               style="fill:#135091;fill-opacity:1;fill-rule:evenodd;stroke:none" /></g><g
             transform="translate(451.0371,56.6084)"
             id="g44368"><path
               d="m 0,0 3.417,0 0,5.408 c 2.982,0.079 7.088,-0.263 7.088,4.48 0,3.02 -2.036,4.408 -4.477,4.408 L 0,14.296 0,0 m 4.793,8.254 -1.376,0 0,3.229 1.483,0 c 0.915,0 2.026,-0.18 2.026,-1.512 0,-1.555 -1.04,-1.717 -2.133,-1.717"
               id="path44370"
               style="fill:#135091;fill-opacity:1;fill-rule:nonzero;stroke:none" /></g><g
             transform="translate(445.0137,59.2207)"
             id="g44372"><path
               d="m 0,0 c 0.783,0.025 1.924,0.246 1.887,1.335 -0.074,2.132 -6.745,0.769 -6.924,5.898 -0.104,2.996 2.386,4.612 4.986,4.701 2.101,0.077 3.71,-0.592 5.069,-2.316 L 2.848,7.827 C 1.912,8.806 1.361,9.271 -0.016,9.22 -0.607,9.202 -1.492,8.788 -1.466,8.044 -1.391,5.851 5.326,7.394 5.51,2.187 5.617,-0.875 3.348,-2.702 0.615,-2.798 -1.889,-2.883 -4.13,-2.258 -5.627,0.004 l 2.33,1.837 C -2.354,0.522 -1.624,-0.056 0,0"
               id="path44374"
               style="fill:#135091;fill-opacity:1;fill-rule:nonzero;stroke:none" /></g><g
             transform="translate(479.3545,71.874)"
             id="g44376"><path
               d="m 0,0 2.521,0 2.199,2.768 -2.161,0 -1.288,-1.405 -1.291,1.405 -2.125,0 L 0,0 m -0.037,-3.598 1.695,0 c 0.904,0 1.968,-0.247 1.968,-1.527 0,-1.426 -1.207,-1.528 -2.201,-1.528 -0.487,0 -0.974,0.021 -1.462,0 l 0,3.055 z m 5.171,-4.978 c 1.31,0.662 2.154,1.814 2.154,3.504 0,2.933 -2.103,4.123 -4.456,4.123 l -6.386,0 0,-14.326 3.517,0 0,5.521 1.516,0 2.573,-5.516 4.193,0 -3.111,6.694 z"
               id="path44378"
               style="fill:#135091;fill-opacity:1;fill-rule:evenodd;stroke:none" /></g><g
             transform="translate(479.1602,79.9502)"
             id="g44380"><path
               d="m 0,0 c 1.059,0.039 2.6,0.333 2.549,1.8 -0.101,2.882 -9.11,1.046 -9.354,7.971 -0.14,4.045 3.222,6.231 6.732,6.354 2.842,0.098 5.017,-0.805 6.857,-3.135 L 3.845,10.576 c -1.261,1.316 -2.006,1.945 -3.866,1.878 -0.8,-0.029 -1.995,-0.585 -1.961,-1.592 C -1.878,7.902 7.201,9.987 7.446,2.953 7.591,-1.176 4.522,-3.648 0.83,-3.777 -2.554,-3.896 -5.581,-3.05 -7.601,0.006 l 3.144,2.477 C -3.178,0.707 -2.195,-0.075 0,0"
               id="path44382"
               style="fill:#135091;fill-opacity:1;fill-rule:nonzero;stroke:none" /></g><g
             transform="translate(499.0049,76.4043)"
             id="g44384"><path
               d="m 0,0 5.464,0 -5.405,12.757 4.83,6.526 -5.784,0 -5.139,-7.067 0,7.067 -5.308,0 0,-19.308 5.281,0 0,4.516 L -3.382,8.11 0,0 z"
               id="path44386"
               style="fill:#135091;fill-opacity:1;fill-rule:evenodd;stroke:none" /></g><g
             transform="translate(470.9043,91.458)"
             id="g44388"><path
               d="m 0,0 0,4.242 -10.192,0 c -1.328,0 -2.405,-1.079 -2.405,-2.413 l 0,-14.471 c 0,-1.329 1.077,-2.412 2.405,-2.412 0.005,0 0.008,0.004 0.013,0.004 l 10.179,0 0,4.25 -7.788,0 0,3.228 7.184,0 0,4.254 -7.184,0 0,3.318 L 0,0"
               id="path44390"
               style="fill:#135091;fill-opacity:1;fill-rule:nonzero;stroke:none" /></g><g
             transform="translate(443.9541,100.75)"
             id="g44392"><path
               d="M 0,0 2.869,0 4.61,-1.896 6.351,0 9.271,0 6.3,-3.735 2.895,-3.735 0,0 m 4.61,-4.667 c 4.996,0 7.997,-2.598 8.11,-7.024 l -4.485,0 c -0.313,2 -1.569,3.114 -3.483,3.114 -2.595,0 -4.083,-2.256 -4.083,-6.137 0,-3.74 1.488,-5.94 3.998,-5.94 2.112,0 3.339,1.344 3.628,3.996 l 4.682,0 c -0.142,-4.993 -3.256,-7.905 -8.452,-7.905 -5.626,0 -9.109,3.8 -9.109,9.934 0,6.14 3.542,9.962 9.194,9.962"
               id="path44394"
               style="fill:#135091;fill-opacity:1;fill-rule:nonzero;stroke:none" /></g><g
             transform="translate(511.7813,97.0146)"
             id="g44396"><path
               d="m 0,0 2.664,0 3.791,3.738 -4.07,0 L 0,0 m 0.354,-12.631 1.771,6.369 1.789,-6.369 -3.56,0 z m 5.351,11.318 -7.186,0 -5.811,-19.297 5.454,0 1.056,3.774 5.948,0 1.026,-3.774 5.566,0 -6.053,19.297 z"
               id="path44398"
               style="fill:#135091;fill-opacity:1;fill-rule:evenodd;stroke:none" /></g><g
             transform="translate(526.5303,92.1875)"
             id="g44400"><path
               d="m 0,0 0,-8.839 17.677,0 0,-1.187 -17.677,0 0,-2.338 c 0,-1.899 1.543,-3.44 3.446,-3.44 l 16.499,0 c 1.902,0 3.446,1.561 3.446,3.462 l 0,8.489 -17.677,0 0,1.315 17.677,0 0,2.559 c 0,1.902 -1.542,3.433 -3.446,3.433 l -16.501,0 C 1.542,3.454 0,1.901 0,0 m 11.725,4.478 c -1.98,0 -3.585,1.601 -3.585,3.578 0,1.977 1.605,3.582 3.585,3.582 1.978,0 3.583,-1.605 3.583,-3.582 0,-1.977 -1.605,-3.578 -3.583,-3.578"
               id="path44402"
               style="fill:#ed1c24;fill-opacity:1;fill-rule:nonzero;stroke:none" /></g><g
             transform="translate(442.667,47.7236)"
             id="g44404"><path
               d="m 0,0 c 0,-0.698 -0.056,-1.268 -0.374,-1.707 -0.457,-0.625 -1.213,-0.662 -1.689,-0.662 -0.402,0 -0.719,0.037 -1.045,0.103 l 0,1.157 c 0.438,-0.085 0.69,-0.085 0.727,-0.085 0.364,0 0.579,0.141 0.684,0.272 0.194,0.224 0.203,0.588 0.203,0.895 l 0,4.149 L 0,4.122 0,0"
               id="path44406"
               style="fill:#135091;fill-opacity:1;fill-rule:nonzero;stroke:none" /></g><g
             transform="translate(446.6338,48.8525)"
             id="g44408"><path
               d="m 0,0 c -0.075,0.158 -0.186,0.309 -0.309,0.4 -0.205,0.168 -0.438,0.188 -0.653,0.188 -0.279,0 -0.429,-0.045 -0.513,-0.095 -0.196,-0.102 -0.252,-0.268 -0.252,-0.382 0,-0.316 0.355,-0.401 0.608,-0.437 l 0.783,-0.112 c 0.392,-0.056 0.925,-0.168 1.278,-0.523 0.197,-0.195 0.373,-0.502 0.373,-0.951 0,-0.606 -0.336,-0.979 -0.625,-1.184 -0.429,-0.299 -1.044,-0.402 -1.605,-0.402 -0.448,0 -1.092,0.066 -1.613,0.439 -0.459,0.334 -0.627,0.765 -0.692,0.952 l 1.176,0.175 c 0.065,-0.222 0.195,-0.371 0.308,-0.464 0.205,-0.159 0.532,-0.243 0.831,-0.243 0.186,0 0.532,0.036 0.709,0.149 0.177,0.111 0.196,0.269 0.196,0.362 0,0.366 -0.383,0.43 -0.662,0.478 l -0.682,0.11 c -0.402,0.065 -0.878,0.179 -1.214,0.467 -0.242,0.216 -0.448,0.55 -0.448,1.007 0,0.457 0.243,0.897 0.645,1.168 0.429,0.289 0.998,0.343 1.446,0.343 0.457,0 0.989,-0.045 1.466,-0.42 C 0.747,0.877 0.979,0.614 1.11,0.234 L 0,0"
               id="path44410"
               style="fill:#135091;fill-opacity:1;fill-rule:nonzero;stroke:none" /></g><g
             transform="translate(448.7715,45.4482)"
             id="g44412"><path
               d="m 0,0 0,4.756 1.315,0 0,-0.764 0.011,0 C 1.568,4.459 2.025,4.85 2.688,4.85 3.136,4.85 3.444,4.702 3.658,4.506 3.78,4.394 3.92,4.217 4.005,3.955 4.098,4.15 4.256,4.394 4.564,4.588 4.872,4.785 5.189,4.85 5.507,4.85 6.039,4.85 6.384,4.664 6.589,4.439 6.926,4.085 6.953,3.6 6.953,3.367 l 0,-3.367 -1.39,0 0,3.015 C 5.563,3.311 5.555,3.535 5.45,3.693 5.377,3.814 5.236,3.918 4.984,3.918 4.648,3.918 4.462,3.731 4.368,3.592 4.19,3.338 4.172,3.004 4.172,2.798 l 0,-2.798 -1.391,0 0,3.015 c 0,0.241 -0.018,0.501 -0.14,0.678 C 2.558,3.814 2.408,3.918 2.175,3.918 1.961,3.918 1.765,3.831 1.605,3.618 1.418,3.367 1.391,3.059 1.391,2.798 L 1.391,0 0,0"
               id="path44414"
               style="fill:#135091;fill-opacity:1;fill-rule:nonzero;stroke:none" /></g><g
             transform="translate(459.9443,48.3408)"
             id="g44416"><path
               d="m 0,0 c 0.009,0.222 -0.057,0.482 -0.188,0.67 -0.13,0.177 -0.345,0.355 -0.708,0.355 -0.29,0 -0.541,-0.123 -0.709,-0.299 C -1.765,0.56 -1.867,0.287 -1.867,0 L 0,0 M 1.382,-1.437 C 1.222,-2.016 0.877,-2.361 0.597,-2.558 0.224,-2.818 -0.29,-2.986 -0.925,-2.986 c -0.783,0 -1.362,0.306 -1.717,0.662 -0.327,0.325 -0.682,0.904 -0.682,1.799 0,1.046 0.467,1.632 0.841,1.951 0.551,0.467 1.149,0.531 1.568,0.531 0.905,0 1.475,-0.41 1.792,-0.795 C 1.167,0.82 1.428,0.25 1.428,-0.551 l 0,-0.242 -3.295,0 c -0.01,-0.262 0.046,-0.552 0.159,-0.756 0.14,-0.271 0.4,-0.506 0.85,-0.506 0.344,0 0.568,0.141 0.699,0.273 0.113,0.112 0.196,0.28 0.234,0.467 l 1.307,-0.122 z"
               id="path44418"
               style="fill:#135091;fill-opacity:1;fill-rule:nonzero;stroke:none" /></g><g
             transform="translate(465.3672,51.8457)"
             id="g44420"><path
               d="M 0,0 1.438,-4.569 2.874,0 4.136,0 2.054,-6.397 0.523,-6.397 -1.577,0 0,0 z"
               id="path44422"
               style="fill:#135091;fill-opacity:1;fill-rule:nonzero;stroke:none" /></g><g
             transform="translate(473.4131,51.7725)"
             id="g44424"><path
               d="M 0,0 -1.903,-0.877 -2.139,-0.346 -0.346,0.783 0,0 m -0.85,-4.076 c -0.465,-0.038 -0.933,-0.084 -1.194,-0.41 -0.075,-0.095 -0.15,-0.233 -0.15,-0.43 0,-0.205 0.102,-0.344 0.205,-0.419 0.131,-0.103 0.327,-0.151 0.513,-0.151 0.282,0 0.607,0.122 0.795,0.345 0.028,0.027 0.251,0.309 0.251,0.85 l 0,0.252 -0.42,-0.037 z m -2.641,1.182 c 0.149,0.646 0.57,0.971 0.821,1.122 0.373,0.213 0.868,0.297 1.483,0.297 0.786,0 1.58,-0.103 1.933,-0.839 0.188,-0.381 0.169,-0.791 0.169,-1.146 l 0,-1.839 c 0,-0.382 0.056,-0.736 0.139,-1.025 l -1.353,0 c -0.037,0.185 -0.065,0.437 -0.075,0.754 -0.178,-0.317 -0.606,-0.848 -1.595,-0.848 -0.44,0 -0.887,0.112 -1.196,0.365 -0.299,0.242 -0.484,0.635 -0.484,1.064 0,0.473 0.204,1.044 1.016,1.378 0.523,0.216 1.372,0.291 1.756,0.309 l 0.447,0.019 0,0.101 c 0,0.13 -0.008,0.41 -0.14,0.561 -0.177,0.205 -0.532,0.215 -0.672,0.215 -0.196,0 -0.429,-0.021 -0.624,-0.143 -0.123,-0.072 -0.28,-0.223 -0.336,-0.481 l -1.289,0.136 z"
               id="path44426"
               style="fill:#135091;fill-opacity:1;fill-rule:nonzero;stroke:none" /></g><g
             transform="translate(475.5215,45.4482)"
             id="g44428"><path
               d="m 0,0 0,4.756 1.316,0 0,-0.764 0.01,0 C 1.568,4.459 2.025,4.85 2.689,4.85 3.137,4.85 3.445,4.702 3.66,4.506 3.781,4.394 3.922,4.217 4.005,3.955 4.099,4.15 4.258,4.394 4.564,4.588 4.873,4.785 5.19,4.85 5.508,4.85 6.039,4.85 6.386,4.664 6.59,4.439 6.926,4.085 6.955,3.6 6.955,3.367 l 0,-3.367 -1.391,0 0,3.015 c 0,0.296 -0.01,0.52 -0.112,0.678 C 5.377,3.814 5.236,3.918 4.984,3.918 4.648,3.918 4.462,3.731 4.368,3.592 4.191,3.338 4.173,3.004 4.173,2.798 l 0,-2.798 -1.391,0 0,3.015 c 0,0.241 -0.018,0.501 -0.14,0.678 C 2.558,3.814 2.41,3.918 2.176,3.918 1.961,3.918 1.765,3.831 1.605,3.618 1.42,3.367 1.392,3.059 1.392,2.798 L 1.392,0 0,0"
               id="path44430"
               style="fill:#135091;fill-opacity:1;fill-rule:nonzero;stroke:none" /></g><g
             transform="translate(487.2178,47.3408)"
             id="g44432"><path
               d="m 0,0 c 0,-0.848 0.485,-1.055 0.83,-1.055 0.691,0 0.859,0.758 0.859,1.578 0,1.11 -0.383,1.502 -0.876,1.502 C 0.429,2.025 0,1.755 0,1.055 L 0,0 m 0,2.213 c 0.251,0.446 0.737,0.744 1.316,0.744 1.363,0 1.829,-1.314 1.829,-2.427 0,-1.213 -0.541,-2.516 -2.006,-2.516 -0.767,0 -1.232,0.373 -1.493,0.802 l -0.272,-0.709 -0.765,0 0,6.398 1.391,0 0,-2.292 z"
               id="path44434"
               style="fill:#135091;fill-opacity:1;fill-rule:nonzero;stroke:none" /></g><path
             d="m 491.277,51.846 1.391,0 0,-6.397 -1.391,0 0,6.397 z"
             id="path44436"
             style="fill:#135091;fill-opacity:1;fill-rule:nonzero;stroke:none" /><path
             d="m 493.845,50.204 1.392,0 0,-4.756 -1.392,0 0,4.756 z m 1.932,1.568 -1.904,-0.876 -0.234,0.531 1.793,1.129 0.345,-0.784 z"
             id="path44438"
             style="fill:#135091;fill-opacity:1;fill-rule:nonzero;stroke:none" /><g
             transform="translate(498.5957,52.2832)"
             id="g44440"><path
               d="m 0,0 0.914,-0.081 -1.53,-1.475 -1.53,1.475 L -1.232,0 -0.616,-0.632 0,0 m 1.307,-2.843 -2.259,-3.013 2.297,0 0,-0.979 -3.922,0 0,0.85 2.222,2.974 -2.035,0 0,0.932 3.697,0 0,-0.764 z"
               id="path44442"
               style="fill:#135091;fill-opacity:1;fill-rule:nonzero;stroke:none" /></g><path
             d="m 500.696,46.894 1.484,0 0,-1.445 -1.484,0 0,1.445 z"
             id="path44444"
             style="fill:#135091;fill-opacity:1;fill-rule:nonzero;stroke:none" /></g></g></g></g></svg>